<?xml version="1.0" encoding="UTF-8"?>
<svg version="1.1" xmlns="http://www.w3.org/2000/svg" width="500" height="500">
<path d="M0 0 C1.67255859 -0.00833862 1.67255859 -0.00833862 3.37890625 -0.0168457 C9.1201364 0.03225692 14.59441628 0.41938966 20.26171875 1.3515625 C27.77528729 2.51839888 35.03196053 2.40433785 42.6003418 2.09106445 C44.85502128 1.99824959 47.10977293 1.92456715 49.36523438 1.85351562 C55.93850317 2.2786705 55.93850317 2.2786705 61.5 0.3125 C63.49964982 0.22491997 65.5023611 0.20553424 67.50390625 0.21484375 C68.59775635 0.21734131 69.69160645 0.21983887 70.81860352 0.22241211 C72.21908936 0.23151611 73.6195752 0.24062012 75.0625 0.25 C79.496875 0.270625 83.93125 0.29125 88.5 0.3125 C86.19 17.1425 83.88 33.9725 81.5 51.3125 C85.79 49.6625 90.08 48.0125 94.5 46.3125 C95.49 46.3125 96.48 46.3125 97.5 46.3125 C97.73225282 54.89617701 96.84166024 63.34636453 96 71.875 C95.85507742 73.3756133 95.71054299 74.87626414 95.56640625 76.37695312 C95.21541203 80.02257913 94.85916568 83.66766889 94.5 87.3125 C96.58919704 79.91602452 98.67560285 72.51876662 100.75842285 65.12049294 C101.72559051 61.68540653 102.6937269 58.25059926 103.6640625 54.81640625 C104.77891064 50.87059628 105.88957074 46.92361833 107 42.9765625 C107.5249707 41.12183823 107.5249707 41.12183823 108.06054688 39.22964478 C108.38087891 38.08861298 108.70121094 36.94758118 109.03125 35.77197266 C109.31548828 34.763815 109.59972656 33.75565735 109.89257812 32.71694946 C110.58164313 30.40265096 110.58164313 30.40265096 110.5 28.3125 C109.88511719 28.5290625 109.27023438 28.745625 108.63671875 28.96875 C107.82847656 29.2471875 107.02023438 29.525625 106.1875 29.8125 C105.38699219 30.0909375 104.58648437 30.369375 103.76171875 30.65625 C101.5 31.3125 101.5 31.3125 98.5 31.3125 C99.31219387 27.08327448 100.12480854 22.85412993 100.9375 18.625 C101.28264648 16.82772461 101.28264648 16.82772461 101.63476562 14.99414062 C101.85712891 13.83720703 102.07949219 12.68027344 102.30859375 11.48828125 C102.51282959 10.42520752 102.71706543 9.36213379 102.92749023 8.2668457 C103.44170848 5.61330413 103.96662298 2.96224848 104.5 0.3125 C107.97914941 0.28362186 111.45826831 0.26574313 114.9375 0.25 C116.42733398 0.23743164 116.42733398 0.23743164 117.94726562 0.22460938 C119.36362305 0.21977539 119.36362305 0.21977539 120.80859375 0.21484375 C122.12041626 0.20698853 122.12041626 0.20698853 123.45874023 0.19897461 C125.5 0.3125 125.5 0.3125 126.5 1.3125 C128.37096111 1.43594027 130.24650928 1.49042394 132.12133789 1.51782227 C133.32250748 1.53776749 134.52367706 1.55771271 135.76124573 1.57826233 C137.0685112 1.59497482 138.37577667 1.61168732 139.72265625 1.62890625 C141.06644847 1.64946958 142.41023412 1.67046588 143.75401306 1.69187927 C147.29674987 1.74716419 150.83954567 1.79654498 154.38238525 1.84472656 C157.9952115 1.89489487 161.60795172 1.95060525 165.22070312 2.00585938 C172.31372747 2.11351937 179.40682888 2.2149468 186.5 2.3125 C186.83 5.2825 187.16 8.2525 187.5 11.3125 C188.14324219 10.85359375 188.78648437 10.3946875 189.44921875 9.921875 C203.6282409 0.29389419 218.57385248 -1.92115944 235.3203125 0.97265625 C245.36506335 3.71537191 254.76095136 9.43838897 260.5 18.3125 C263.18463949 23.50230448 265.34537834 28.88677091 267.5 34.3125 C267.75652344 33.77882812 268.01304687 33.24515625 268.27734375 32.6953125 C276.35041034 16.98409199 289.10639436 8.0997727 305.41796875 2.26953125 C322.31827582 -2.48577312 342.68844822 -1.36532559 358.3125 6.5625 C367.82597957 12.05765066 374.59281577 18.29877717 379.5 28.3125 C379.5 29.6325 379.5 30.9525 379.5 32.3125 C375.59334136 34.34002083 371.67901554 36.35161358 367.75683594 38.34887695 C366.4238898 39.0304308 365.09313 39.71627838 363.76464844 40.40649414 C361.85390746 41.39828009 359.93581818 42.37432399 358.015625 43.34765625 C356.86352539 43.9394165 355.71142578 44.53117676 354.52441406 45.14086914 C351.5 46.3125 351.5 46.3125 349.18164062 46.10449219 C346.881506 45.02121159 346.0980762 43.63709727 344.75 41.5 C341.59405414 37.13805994 338.76431069 34.68207677 333.5 33.3125 C325.83518001 32.39157044 318.80961913 32.50160276 312.5 37.3125 C306.47490502 43.06981299 304.38796683 49.63766164 304.125 57.8125 C304.38796683 65.98733836 306.47490502 72.55518701 312.5 78.3125 C318.81346635 83.12633064 325.83129956 83.22544053 333.5 82.3125 C340.75487428 80.5047673 344.43269185 75.26093817 348.5 69.3125 C352.66995424 69.93613907 355.92514447 71.3508738 359.67578125 73.25390625 C360.83271484 73.83720703 361.98964844 74.42050781 363.18164062 75.02148438 C364.39199387 75.63919206 365.6022795 76.25703227 366.8125 76.875 C368.04203759 77.49729856 369.27185267 78.11904918 370.50195312 78.74023438 C373.50407552 80.25895512 376.50325153 81.7832102 379.5 83.3125 C378.18406088 92.30771273 372.76004259 99.02057696 365.78515625 104.71875 C349.61059516 115.99946953 329.97958781 117.80470324 310.84765625 114.65625 C293.84110438 111.17481453 280.3181955 101.72385748 270.77734375 87.37890625 C269.5 85.3125 269.5 85.3125 268.5 83.3125 C268.17 93.2125 267.84 103.1125 267.5 113.3125 C254.3 113.3125 241.1 113.3125 227.5 113.3125 C227.46261719 108.713125 227.42523438 104.11375 227.38671875 99.375 C227.35641798 96.44918235 227.32525651 93.52342398 227.29101562 90.59765625 C227.23683089 85.9608063 227.18571599 81.32407362 227.15356445 76.68701172 C227.12742247 72.94557581 227.08694481 69.20453703 227.03681374 65.46334839 C227.02021821 64.04097459 227.00865861 62.61853222 227.00238609 61.19607544 C226.95968976 50.38701864 226.95968976 50.38701864 223.5 40.3125 C218.01703037 35.09699231 214.06648043 35.01631597 206.69921875 35.10546875 C200.17261888 35.52782503 196.93421571 38.53193388 192.796875 43.203125 C188.47514179 50.2324501 189.15682919 58.37274872 189.0859375 66.33984375 C189.06720246 67.69748582 189.04762734 69.05511654 189.0272522 70.41273499 C188.97617133 73.96523304 188.93641798 77.51776875 188.89910889 81.07043457 C188.85891738 84.70394993 188.80799825 88.33731433 188.7578125 91.97070312 C188.66033436 99.08457646 188.58062578 106.19833593 188.5 113.3125 C175.3 113.3125 162.1 113.3125 148.5 113.3125 C148.17 87.5725 147.84 61.8325 147.5 35.3125 C136.90601446 60.35264268 136.90601446 60.35264268 126.5234375 85.48046875 C125.68862884 87.52265268 124.8537496 89.56480776 124.01879883 91.60693359 C122.80315814 94.58085451 121.59044448 97.55577656 120.38778687 100.53497314 C116.52465945 110.10371036 112.57865066 119.57218987 107.80859375 128.73046875 C107.46458023 129.39935623 107.12056671 130.06824371 106.76612854 130.75740051 C100.60267911 142.21737171 91.40057631 149.36469678 79.140625 153.5859375 C63.81224309 157.80351004 47.53508613 155.68832831 33.42578125 148.69140625 C31.0787037 147.0108416 30.35965209 146.07367314 29.5 143.3125 C30.46630859 140.47167969 30.46630859 140.47167969 32.1484375 137.234375 C32.74140625 136.07421875 33.334375 134.9140625 33.9453125 133.71875 C34.58819993 132.4998197 35.2314336 131.28107196 35.875 130.0625 C36.51187562 128.82887711 37.14731046 127.59450926 37.78125 126.359375 C39.34012163 123.33610881 40.91340189 120.3212819 42.5 117.3125 C45.29549013 118.4004234 47.90712106 119.52852342 50.5625 120.9375 C55.99535614 123.26076085 62.97770027 123.63082715 68.53515625 121.55078125 C71.55818688 119.67160005 73.30283974 117.62156738 74.5 114.3125 C74.14739449 112.23177149 74.14739449 112.23177149 73.14501953 110.14697266 C72.79554764 109.32764755 72.44607574 108.50832245 72.08601379 107.66416931 C71.68895737 106.77725906 71.29190094 105.89034882 70.8828125 104.9765625 C70.47894821 104.04086929 70.07508392 103.10517609 69.65898132 102.14112854 C68.3285067 99.06687015 66.97675634 96.00245263 65.625 92.9375 C64.70625345 90.82405005 63.7891918 88.70986688 62.8737793 86.5949707 C61.00434254 82.27811689 59.1283846 77.96418398 57.24853516 73.65185547 C53.1837803 64.30418247 49.24889715 54.90224308 45.3125 45.5 C44.31016368 43.1098587 43.30715516 40.7200032 42.30317688 38.33055115 C41.71534256 36.93150171 41.12820836 35.53215782 40.54191589 34.13246155 C39.09608557 30.68841581 39.09608557 30.68841581 37.5 27.3125 C35.85 30.2825 34.2 33.2525 32.5 36.3125 C28.20719323 35.45393865 24.29245604 34.2561878 20.1875 32.8125 C14.91168935 31.01337856 10.08183634 29.60121567 4.5 29.3125 C3.78714844 29.27382812 3.07429688 29.23515625 2.33984375 29.1953125 C-4.31845919 28.98973882 -10.87330785 29.5613719 -16.5 33.3125 C-16.75030977 35.89630177 -16.75030977 35.89630177 -16.5 38.3125 C-11.7943272 40.48010032 -7.55881898 41.87153902 -2.421875 42.77734375 C-1.08202797 43.02276855 0.25781567 43.26821185 1.59765625 43.51367188 C3.66799306 43.88248571 5.73887312 44.24804442 7.81005859 44.61206055 C21.7941354 47.09073733 34.5730868 49.78706837 43.9375 61.3125 C48.28039137 69.65085143 48.95347793 78.96767718 46.84765625 88.16015625 C43.41936169 97.67992699 36.46116353 104.77422834 27.5 109.3125 C1.97897544 119.28375564 -26.79777282 117.67139089 -52.03125 107.4609375 C-54.5 106.3125 -54.5 106.3125 -57.5 104.3125 C-55.71666237 98.54572887 -53.36350213 93.04630133 -51 87.5 C-50.39478516 86.05077148 -50.39478516 86.05077148 -49.77734375 84.57226562 C-49.38675781 83.65509766 -48.99617188 82.73792969 -48.59375 81.79296875 C-48.23990234 80.95660889 -47.88605469 80.12024902 -47.52148438 79.25854492 C-46.5 77.3125 -46.5 77.3125 -44.5 76.3125 C-42.53067149 77.15862602 -40.59857364 78.09194265 -38.6875 79.0625 C-25.10248486 85.50379981 -8.08792754 88.75364421 6.71484375 84.70703125 C8.90970426 83.30240829 8.90970426 83.30240829 9.25 79.6875 C9.3325 78.57375 9.415 77.46 9.5 76.3125 C6.52135175 75.70568128 3.54221037 75.10156825 0.5625 74.5 C-0.79391602 74.22542969 -0.79391602 74.22542969 -2.17773438 73.9453125 C-7.23351739 72.93203013 -12.29034549 71.99316722 -17.37915039 71.16235352 C-30.67155398 68.96965013 -43.03332473 66.15915655 -51.4375 54.75 C-55.86413519 46.81894528 -56.41188166 36.55599556 -54.37890625 27.8359375 C-50.89025627 17.81963577 -42.68425168 10.1169659 -33.3125 5.5 C-22.18468359 0.9940716 -11.9000413 0.04969212 0 0 Z " fill="#648DCA" transform="translate(89.5,177.6875)"/>
<path d="M0 0 C0.66 0 1.32 0 2 0 C2 26.73 2 53.46 2 81 C13.88 81 25.76 81 38 81 C38.06058594 76.74996094 38.12117188 72.49992187 38.18359375 68.12109375 C38.23461016 64.71894289 38.28652416 61.31680835 38.33904266 57.91468048 C38.39412234 54.33076316 38.44764362 50.74683851 38.49731445 47.1628418 C38.5452727 43.70684775 38.59762365 40.25094492 38.65294075 36.79506111 C38.68305111 34.84375981 38.70868549 32.89239109 38.73423767 30.94102478 C38.94965465 17.97277064 38.94965465 17.97277064 40 14 C42.04563904 12.82737732 42.04563904 12.82737732 44 12 C43.78937424 12.555737 43.57874847 13.111474 43.36174011 13.68405151 C40.7666363 21.25561371 40.52790376 28.36664784 40.48828125 36.3203125 C40.4713976 37.67367135 40.45324253 39.02701487 40.43388367 40.38034058 C40.38677656 43.90815435 40.35671524 47.43590599 40.33044434 50.96392822 C40.3004381 54.57763864 40.25413427 58.19113979 40.20898438 61.8046875 C40.12188573 68.86980552 40.06160599 75.93443047 40 83 C26.8 83 13.6 83 0 83 C-0.28967473 62.57570298 -0.28967473 62.57570298 -0.40429688 53.90039062 C-0.48267918 47.97008863 -0.56218668 42.0398161 -0.64819336 36.10961914 C-0.71742911 31.33106528 -0.78178664 26.55246881 -0.84269524 21.7738018 C-0.86685702 19.94644198 -0.89280646 18.11910493 -0.92053413 16.29179573 C-0.95893309 13.74152314 -0.99109761 11.19124514 -1.02172852 8.64086914 C-1.03467453 7.87770386 -1.04762054 7.11453857 -1.06095886 6.32824707 C-1.07904398 4.55214056 -1.04519148 2.7756236 -1 1 C-0.67 0.67 -0.34 0.34 0 0 Z " fill="#6785B3" transform="translate(238,208)"/>
<path d="M0 0 C0.99 0 1.98 0 3 0 C3.23013606 8.74517028 2.22997105 17.31758045 1.28173828 25.99804688 C0.4826704 33.36904035 -0.19518258 40.5830618 0 48 C-2 46 -2 46 -2.13525391 43.83959961 C-2.08288574 42.95280518 -2.03051758 42.06601074 -1.9765625 41.15234375 C-1.92491943 40.16169922 -1.87327637 39.17105469 -1.82006836 38.15039062 C-1.7556958 37.09013672 -1.69132324 36.02988281 -1.625 34.9375 C-1.51148198 32.75926078 -1.40082465 30.58087067 -1.29296875 28.40234375 C-1.23931152 27.32194824 -1.1856543 26.24155273 -1.13037109 25.12841797 C-0.85084005 18.42071997 -0.91793008 11.71149606 -1 5 C-0.34 5 0.32 5 1 5 C0.67 3.35 0.34 1.7 0 0 Z " fill="#6C8BBB" transform="translate(184,224)"/>
<path d="M0 0 C5.64302343 0.91863172 5.64302343 0.91863172 8.32104492 1.52905273 C11.32437553 2.05702364 14.12677637 2.11267598 17.17578125 2.09765625 C18.91118164 2.09282227 18.91118164 2.09282227 20.68164062 2.08789062 C21.87982422 2.07951172 23.07800781 2.07113281 24.3125 2.0625 C25.53001953 2.05798828 26.74753906 2.05347656 28.00195312 2.04882812 C31.00135226 2.03706578 34.00065089 2.02062826 37 2 C37 1.34 37 0.68 37 0 C39.97 0 42.94 0 46 0 C36.1773651 6.54842326 22.45961689 6.18382527 11.16015625 4.390625 C2.51921721 2.51921721 2.51921721 2.51921721 0 0 Z " fill="#6B8AB8" transform="translate(129,328)"/>
<path d="M0 0 C5.94640867 1.16596248 9.47479655 4.94661325 13.0078125 9.703125 C18 17.26214575 18 17.26214575 18 22 C12.25 25 12.25 25 10 25 C10 24.34 10 23.68 10 23 C12.5 21.375 12.5 21.375 15 20 C13.31179753 14.9353926 12.14756829 11.51914885 8 8 C7.34 7.278125 6.68 6.55625 6 5.8125 C3.92913615 3.93577964 2.72644011 3.38949144 0 3 C0 2.01 0 1.02 0 0 Z " fill="#6A89B6" transform="translate(451,188)"/>
<path d="M0 0 C0.33 1.32 0.66 2.64 1 4 C1.7425 3.525625 2.485 3.05125 3.25 2.5625 C7.50131234 0.14698163 7.50131234 0.14698163 10 0 C12.44727267 0.83164894 14.6611832 1.87556885 17 3 C16.67 3.66 16.34 4.32 16 5 C15.01 5.33 14.02 5.66 13 6 C11.97299556 8.32891096 11.97299556 8.32891096 11.3125 11.0625 C11.06113281 11.98160156 10.80976563 12.90070313 10.55078125 13.84765625 C10.36902344 14.55792969 10.18726563 15.26820313 10 16 C8.92689142 12.72814447 9.10736898 10.57052408 9.9375 7.25 C10.13214844 6.45078125 10.32679688 5.6515625 10.52734375 4.828125 C10.68332031 4.22484375 10.83929688 3.6215625 11 3 C10.38511719 3.2165625 9.77023438 3.433125 9.13671875 3.65625 C8.32847656 3.9346875 7.52023438 4.213125 6.6875 4.5 C5.48673828 4.91765625 5.48673828 4.91765625 4.26171875 5.34375 C2 6 2 6 -1 6 C-0.67 4.02 -0.34 2.04 0 0 Z " fill="#6889BE" transform="translate(189,203)"/>
<path d="M0 0 C-1.32 9.9 -2.64 19.8 -4 30 C-4.33 30 -4.66 30 -5 30 C-5.02888514 26.85418577 -5.04675923 23.70840531 -5.0625 20.5625 C-5.07087891 19.66466797 -5.07925781 18.76683594 -5.08789062 17.84179688 C-5.09111328 16.98779297 -5.09433594 16.13378906 -5.09765625 15.25390625 C-5.10551147 14.06776733 -5.10551147 14.06776733 -5.11352539 12.85766602 C-5 11 -5 11 -4 10 C-3.92820036 8.48071962 -3.91607993 6.95832518 -3.9375 5.4375 C-3.94652344 4.61121094 -3.95554688 3.78492188 -3.96484375 2.93359375 C-3.97644531 2.29550781 -3.98804688 1.65742188 -4 1 C-2 0 -2 0 0 0 Z " fill="#6988B9" transform="translate(178,178)"/>
<path d="M0 0 C2.7845706 1.09695205 5.41335714 2.21933236 8.0625 3.625 C13.6424385 6.00593656 20.66254501 6.2935438 26.328125 4.09765625 C28.44379736 2.93589326 28.44379736 2.93589326 31 1 C30.0817512 3.29562199 29.42392281 4.71269686 27.3515625 6.1171875 C24.19843149 7.30092107 21.48703265 7.26446036 18.125 7.25 C16.33449219 7.25773437 16.33449219 7.25773437 14.5078125 7.265625 C9.27166045 6.86912351 4.8166211 4.98331457 0 3 C-0.12375 3.639375 -0.2475 4.27875 -0.375 4.9375 C-0.58125 5.618125 -0.7875 6.29875 -1 7 C-1.99 7.495 -1.99 7.495 -3 8 C-1.125 2.25 -1.125 2.25 0 0 Z " fill="#6C86AF" transform="translate(132,295)"/>
<path d="M0 0 C0.66 0.33 1.32 0.66 2 1 C1.60167969 1.40089844 1.20335937 1.80179688 0.79296875 2.21484375 C-5.65463426 9.13307472 -7.48957731 15.89222038 -7.23828125 25.26953125 C-6.88519875 29.31550938 -6.02992069 33.07342735 -5 37 C-7.93576059 34.57480647 -8.54481949 32.74440158 -9 29 C-9.63109626 19.73987598 -9.26987033 10.90480549 -4 3 C-3.34 3 -2.68 3 -2 3 C-2 2.34 -2 1.68 -2 1 C-1.34 0.67 -0.68 0.34 0 0 Z " fill="#6A87B5" transform="translate(401,213)"/>
<path d="M0 0 C0.33 0.66 0.66 1.32 1 2 C1.66 2 2.32 2 3 2 C1.66666667 4.66666667 0.33333333 7.33333333 -1 10 C1.31 10.33 3.62 10.66 6 11 C5.67 12.32 5.34 13.64 5 15 C1.54074837 13.7508258 -1.14693203 12.32472205 -4 10 C-2.8905928 6.51329166 -1.73662334 3.22515763 0 0 Z " fill="#6989BE" transform="translate(123,313)"/>
<path d="M0 0 C7.07916605 -0.19161652 13.21462432 -0.2206684 20 2 C23.98752448 2.7470299 27.99076088 3.38116835 32 4 C32.495 5.485 32.495 5.485 33 7 C31.06060547 6.60167969 31.06060547 6.60167969 29.08203125 6.1953125 C19.41436846 4.22604272 9.77587341 2.35577806 0 1 C0 0.67 0 0.34 0 0 Z " fill="#6B89B4" transform="translate(66,247)"/>
<path d="M0 0 C4.24993992 -0.05895136 8.49977216 -0.0939116 12.75 -0.125 C14.53083984 -0.15013672 14.53083984 -0.15013672 16.34765625 -0.17578125 C24.10822173 -0.21818871 31.39444686 0.44916652 39 2 C39 2.33 39 2.66 39 3 C37.86111328 2.98259766 37.86111328 2.98259766 36.69921875 2.96484375 C35.70535156 2.95582031 34.71148437 2.94679687 33.6875 2.9375 C32.70136719 2.92589844 31.71523437 2.91429687 30.69921875 2.90234375 C27.90036151 2.87670138 27.90036151 2.87670138 25 4 C24.67 3.34 24.34 2.68 24 2 C16.08 1.67 8.16 1.34 0 1 C0 0.67 0 0.34 0 0 Z " fill="#6888B7" transform="translate(76,178)"/>
<path d="M0 0 C0.66 0.33 1.32 0.66 2 1 C2.18451025 15.78132118 2.18451025 15.78132118 1 22 C0.34 22 -0.32 22 -1 22 C-1.02887814 18.52085059 -1.04675687 15.04173169 -1.0625 11.5625 C-1.07087891 10.56927734 -1.07925781 9.57605469 -1.08789062 8.55273438 C-1.09111328 7.60849609 -1.09433594 6.66425781 -1.09765625 5.69140625 C-1.10289307 4.81685791 -1.10812988 3.94230957 -1.11352539 3.04125977 C-1 1 -1 1 0 0 Z " fill="#7691BE" transform="translate(171,200)"/>
<path d="M0 0 C1.1817019 3.5451057 0.7911988 4.14017506 -0.65234375 7.44921875 C-1.01650391 8.29677734 -1.38066406 9.14433594 -1.75585938 10.01757812 C-2.34077148 11.33918945 -2.34077148 11.33918945 -2.9375 12.6875 C-3.32357422 13.58017578 -3.70964844 14.47285156 -4.10742188 15.39257812 C-5.06311123 17.59892268 -6.02755469 19.80100147 -7 22 C-8.06441304 18.31427127 -7.7859383 15.77250386 -7 12 C-6.87625 11.236875 -6.7525 10.47375 -6.625 9.6875 C-6.41875 9.130625 -6.2125 8.57375 -6 8 C-5.01 7.67 -4.02 7.34 -3 7 C-1.28432339 3.49705129 -1.28432339 3.49705129 0 0 Z " fill="#6786B6" transform="translate(226,234)"/>
<path d="M0 0 C3 1 3 1 4 3 C7.3 2.67 10.6 2.34 14 2 C14 1.34 14 0.68 14 0 C15.65 0 17.3 0 19 0 C16.49987316 2.08343904 13.85804682 3.71433305 11 5.25 C10.34 5.60578125 9.68 5.9615625 9 6.328125 C6.5352335 7.1561325 5.37733293 7.02385136 3 6 C1.25 2.9375 1.25 2.9375 0 0 Z " fill="#6A87B7" transform="translate(434,217)"/>
<path d="M0 0 C3.82097239 0.53069061 6.06171403 1.49701566 9 4 C6.23723823 3.47731534 3.6739124 2.89130413 1 2 C0.5875 2.9075 0.175 3.815 -0.25 4.75 C-1.91692189 7.84571207 -3.20566927 9.88308278 -6 12 C-8.25 11.75 -8.25 11.75 -10 11 C-9.0925 10.29875 -8.185 9.5975 -7.25 8.875 C-4.08030474 6.25361695 -2.12079889 3.50747509 0 0 Z " fill="#6889B3" transform="translate(438,247)"/>
<path d="M0 0 C0.33 0.99 0.66 1.98 1 3 C0.20335937 3.54527344 0.20335937 3.54527344 -0.609375 4.1015625 C-5.15563635 7.33704047 -7.97531687 10.2469265 -11 15 C-13.25 16.375 -13.25 16.375 -15 17 C-11.80573668 9.96948907 -6.00185406 4.6843739 0 0 Z " fill="#6A88B6" transform="translate(376,189)"/>
<path d="M0 0 C1.98 0 3.96 0 6 0 C6.23074219 0.62648438 6.46148437 1.25296875 6.69921875 1.8984375 C8.41357926 4.6681851 9.69730982 4.84970529 12.8125 5.625 C16.32763535 6.55592586 19.65465359 7.55034989 23 9 C21 10 21 10 18.49609375 9.3984375 C11.89912626 7.19102309 5.92700322 4.65199188 0 1 C0 0.67 0 0.34 0 0 Z " fill="#6888B3" transform="translate(378,282)"/>
<path d="M0 0 C4.35970831 1.34849837 8.31341438 3.04907846 12.375 5.125 C13.43460937 5.66382813 14.49421875 6.20265625 15.5859375 6.7578125 C16.38257813 7.16773438 17.17921875 7.57765625 18 8 C18 9.32 18 10.64 18 12 C17.34 12 16.68 12 16 12 C16 11.01 16 10.02 16 9 C13.03 8.01 10.06 7.02 7 6 C7 5.34 7 4.68 7 4 C4.69 3.34 2.38 2.68 0 2 C0 1.34 0 0.68 0 0 Z " fill="#6E88B2" transform="translate(451,253)"/>
<path d="M0 0 C-5.14867601 3.46440168 -10.03477018 6.21043105 -16 8 C-17.32 7.67 -18.64 7.34 -20 7 C-16.37 5.35 -12.74 3.7 -9 2 C-9 1.67 -9 1.34 -9 1 C-2.25 -1.125 -2.25 -1.125 0 0 Z " fill="#6C88B4" transform="translate(454,283)"/>
<path d="M0 0 C0.99 0.33 1.98 0.66 3 1 C3 2.65 3 4.3 3 6 C2.34 6 1.68 6 1 6 C0.690625 6.639375 0.38125 7.27875 0.0625 7.9375 C-1 10 -1 10 -2 11 C-4.01594582 11.23427778 -6.038474 11.41336124 -8.0625 11.5625 C-9.71958984 11.68818359 -9.71958984 11.68818359 -11.41015625 11.81640625 C-12.26480469 11.87699219 -13.11945313 11.93757813 -14 12 C-14 11.34 -14 10.68 -14 10 C-13.09507813 9.92652344 -13.09507813 9.92652344 -12.171875 9.8515625 C-11.37265625 9.77679688 -10.5734375 9.70203125 -9.75 9.625 C-8.96109375 9.55539062 -8.1721875 9.48578125 -7.359375 9.4140625 C-4.83830282 8.97162268 -3.12028379 8.438764 -1 7 C-0.18129815 3.43793339 -0.18129815 3.43793339 0 0 Z " fill="#6A88B4" transform="translate(99,254)"/>
<path d="M0 0 C1.17571451 3.67410785 1.07366746 7.16929183 1 11 C0.01 11.33 -0.98 11.66 -2 12 C-2.12117187 12.71027344 -2.24234375 13.42054688 -2.3671875 14.15234375 C-2.53476563 15.07144531 -2.70234375 15.99054688 -2.875 16.9375 C-3.03742188 17.85402344 -3.19984375 18.77054687 -3.3671875 19.71484375 C-3.68042969 20.84599609 -3.68042969 20.84599609 -4 22 C-4.66 22.33 -5.32 22.66 -6 23 C-5.37650642 20.47878568 -4.75124639 17.95803069 -4.125 15.4375 C-3.86396484 14.38079102 -3.86396484 14.38079102 -3.59765625 13.30273438 C-2.48705185 8.83975002 -1.28798784 4.41512948 0 0 Z " fill="#6989B8" transform="translate(190,244)"/>
<path d="M0 0 C-6.04617311 3.14619868 -12.08847232 5.53165598 -19 5 C-13.41631348 1.27754232 -6.71593812 -0.53020564 0 0 Z " fill="#6989B9" transform="translate(76,179)"/>
<path d="M0 0 C0.66 0.33 1.32 0.66 2 1 C2 1.99 2 2.98 2 4 C2.99 4.33 3.98 4.66 5 5 C-1.27 4.34 -7.54 3.68 -14 3 C-14 2.67 -14 2.34 -14 2 C-9.38 2 -4.76 2 0 2 C0 1.34 0 0.68 0 0 Z " fill="#6789BC" transform="translate(101,203)"/>
<path d="M0 0 C0.66 0 1.32 0 2 0 C0.63285948 5.01284859 -2.7277214 9.09773479 -7 12 C-9.2265625 11.6953125 -9.2265625 11.6953125 -11 11 C-10.01 10.67 -9.02 10.34 -8 10 C-6.14793396 8.20991673 -6.14793396 8.20991673 -4.375 6.0625 C-3.76398438 5.35222656 -3.15296875 4.64195312 -2.5234375 3.91015625 C-0.94973658 2.07285982 -0.94973658 2.07285982 0 0 Z " fill="#6887B1" transform="translate(131,271)"/>
<path d="M0 0 C0.886875 0.309375 1.77375 0.61875 2.6875 0.9375 C8.30877947 2.57510414 14.18552198 2.66774411 20 3 C20 3.33 20 3.66 20 4 C17.60408962 4.02712351 15.20849043 4.0468982 12.8125 4.0625 C12.13896484 4.07087891 11.46542969 4.07925781 10.77148438 4.08789062 C7.04565869 4.10606538 3.6211958 3.89299392 0 3 C0 2.01 0 1.02 0 0 Z " fill="#6B89B4" transform="translate(403,258)"/>
<path d="M0 0 C4.42761914 1.39153744 6.9556255 3.52071486 10 7 C10 7.66 10 8.32 10 9 C6.78956118 7.61811547 4.95063635 6.07578097 2.75 3.375 C2.22921875 2.74335938 1.7084375 2.11171875 1.171875 1.4609375 C0.78515625 0.97882813 0.3984375 0.49671875 0 0 Z " fill="#6888B7" transform="translate(365,271)"/>
<path d="M0 0 C0.12375 0.61875 0.2475 1.2375 0.375 1.875 C0.87197356 4.19120832 0.87197356 4.19120832 3 6 C1.02 6.99 1.02 6.99 -1 8 C-1 9.65 -1 11.3 -1 13 C-1.99 13.495 -1.99 13.495 -3 14 C-2.40380045 9.13103697 -1.43023178 4.67209049 0 0 Z " fill="#6889BC" transform="translate(194,230)"/>
<path d="M0 0 C0.66 0.33 1.32 0.66 2 1 C1.79503906 1.56847656 1.59007812 2.13695312 1.37890625 2.72265625 C-0.29092669 7.5084454 -1.46376936 11.95943201 -2 17 C-2.33 17 -2.66 17 -3 17 C-3.08978444 11.88228715 -3.00925009 7.04625044 -2 2 C-1.34 1.34 -0.68 0.68 0 0 Z " fill="#6C88B8" transform="translate(280,220)"/>
<path d="M0 0 C0.66 0 1.32 0 2 0 C0.125 5.75 0.125 5.75 -1 8 C-5.75 7.25 -5.75 7.25 -8 5 C-5.69 5 -3.38 5 -1 5 C-0.67 3.35 -0.34 1.7 0 0 Z " fill="#6D85B1" transform="translate(123,206)"/>
<path d="M0 0 C-1 2 -1 2 -3.1875 3.125 C-6.26769331 4.08328236 -8.79309948 4.14915816 -12 4 C-9.94577945 1.94577945 -8.66990976 1.31862408 -6 0.3125 C-5.29875 0.04050781 -4.5975 -0.23148438 -3.875 -0.51171875 C-2 -1 -2 -1 0 0 Z " fill="#6E89B8" transform="translate(184,226)"/>
<path d="M0 0 C1.28432364 3.85297092 0.58019149 5.31288651 -1 9 C-3.125 11.375 -3.125 11.375 -5 13 C-4.54554036 11.58208592 -4.08625056 10.16571954 -3.625 8.75 C-3.24214844 7.56664062 -3.24214844 7.56664062 -2.8515625 6.359375 C-2.04826333 4.13372042 -1.10288338 2.09068328 0 0 Z " fill="#6B88B4" transform="translate(41,260)"/>
<path d="M0 0 C0.66 0.33 1.32 0.66 2 1 C2 1.99 2 2.98 2 4 C2.99 3.67 3.98 3.34 5 3 C5.66 4.65 6.32 6.3 7 8 C2.58110387 6.64978174 0.65654657 4.73884332 -2 1 C-1.34 0.67 -0.68 0.34 0 0 Z " fill="#6A87BA" transform="translate(42,233)"/>
<path d="M0 0 C0.33 1.32 0.66 2.64 1 4 C2.36125 3.4740625 2.36125 3.4740625 3.75 2.9375 C7.00591313 1.99829429 7.92749994 2.04485324 11 3 C9.56445975 3.50559908 8.1264798 4.0042749 6.6875 4.5 C5.48673828 4.91765625 5.48673828 4.91765625 4.26171875 5.34375 C2 6 2 6 -1 6 C-0.67 4.02 -0.34 2.04 0 0 Z " fill="#6A85AB" transform="translate(189,203)"/>
<path d="M0 0 C4.05606165 0.46800711 7.46588679 0.87953208 11 3 C8.83032311 3.95465783 7.43671207 4.14401212 5.17578125 3.3984375 C3.4315257 2.64129615 1.71372869 1.82390802 0 1 C0 0.67 0 0.34 0 0 Z " fill="#6B88B8" transform="translate(35,283)"/>
<path d="M0 0 C1.39195915 4.17587745 -0.17676781 6.13474776 -2 10 C-2.99 9.67 -3.98 9.34 -5 9 C-3.46312312 5.92624624 -1.71085145 2.98019285 0 0 Z " fill="#6B89BC" transform="translate(360,206)"/>
<path d="M0 0 C3.465 1.485 3.465 1.485 7 3 C3.98968256 3.93423645 3.13349732 4.04449911 0 3 C-0.33 3.99 -0.66 4.98 -1 6 C-1.33 5.34 -1.66 4.68 -2 4 C-1.0625 1.875 -1.0625 1.875 0 0 Z " fill="#6C87AD" transform="translate(44,254)"/>
<path d="M0 0 C0.66 0.33 1.32 0.66 2 1 C2.25 7.625 2.25 7.625 0 11 C-0.19406478 9.35492782 -0.38007935 7.70890406 -0.5625 6.0625 C-0.66691406 5.14597656 -0.77132812 4.22945312 -0.87890625 3.28515625 C-0.91886719 2.53105469 -0.95882812 1.77695313 -1 1 C-0.67 0.67 -0.34 0.34 0 0 Z " fill="#739AD9" transform="translate(171,200)"/>
<path d="M0 0 C0.99 0.33 1.98 0.66 3 1 C1.38405168 3.04119788 -0.2856382 5.04072937 -2 7 C-2.66 7 -3.32 7 -4 7 C-2.92598892 4.08482708 -2.22189824 2.22189824 0 0 Z " fill="#6A89B4" transform="translate(189,314)"/>
<path d="M0 0 C1.5625 1.1875 1.5625 1.1875 3 3 C2.6875 5.6875 2.6875 5.6875 2 8 C0.4375 6.25 0.4375 6.25 -1 4 C-0.6875 1.75 -0.6875 1.75 0 0 Z " fill="#6A8CC1" transform="translate(145,241)"/>
<path d="M0 0 C2.79872437 2.52788007 4.45773019 4.20411134 5 8 C2.5 6.8125 2.5 6.8125 0 5 C-0.3125 2.3125 -0.3125 2.3125 0 0 Z " fill="#6984B5" transform="translate(346,192)"/>
</svg>
